<svg xmlns="http://www.w3.org/2000/svg" viewBox="0 0 1024 1024" role="img" aria-label="Gestão Financeira">
  <defs>
    <linearGradient id="bg" x1="0" y1="0" x2="1" y2="1">
      <stop offset="0%" stop-color="#28b67c"/>
      <stop offset="55%" stop-color="#0d8053"/>
      <stop offset="100%" stop-color="#052f24"/>
    </linearGradient>
    <linearGradient id="wallet" x1="0" y1="0" x2="1" y2="1">
      <stop offset="0%" stop-color="#f8fbfb"/>
      <stop offset="100%" stop-color="#cfd9db"/>
    </linearGradient>
    <linearGradient id="green" x1="0" y1="0" x2="0" y2="1">
      <stop offset="0%" stop-color="#79ea57"/>
      <stop offset="100%" stop-color="#26b05e"/>
    </linearGradient>
    <filter id="soft" x="-20%" y="-20%" width="140%" height="140%">
      <feDropShadow dx="0" dy="14" stdDeviation="18" flood-opacity="0.25"/>
    </filter>
  </defs>

  <rect x="40" y="40" width="944" height="944" rx="220" fill="url(#bg)"/>

  <g opacity="0.98" filter="url(#soft)">
    <rect x="310" y="520" width="80" height="150" rx="16" fill="url(#green)"/>
    <rect x="430" y="450" width="96" height="220" rx="18" fill="url(#green)"/>
    <rect x="565" y="365" width="112" height="305" rx="20" fill="url(#green)"/>
  </g>

  <path d="M240 610 L505 395 L604 445 L755 312" fill="none" stroke="#f7fafc" stroke-width="34" stroke-linecap="round" stroke-linejoin="round" filter="url(#soft)"/>
  <path d="M745 285 L810 250 L785 330 Z" fill="#f7fafc" filter="url(#soft)"/>

  <g filter="url(#soft)">
    <path d="M220 605 C240 565 290 538 352 538 H748 C790 538 824 572 824 614 V760 H220 Z" fill="url(#wallet)"/>
    <path d="M220 760 H824 V782 C824 860 760 924 682 924 H362 C284 924 220 860 220 782 Z" fill="url(#wallet)"/>
    <path d="M595 670 H840 C878 670 910 700 910 738 V774 C910 810 878 840 840 840 H595 C556 840 525 810 525 774 V738 C525 700 556 670 595 670 Z" fill="#0f8a59" stroke="#4add9e" stroke-width="7"/>
    <circle cx="694" cy="755" r="43" fill="#f3f7f8"/>
    <circle cx="694" cy="755" r="21" fill="#0d7f53"/>
  </g>
</svg>
